<svg xmlns="http://www.w3.org/2000/svg" width="16" height="17" viewBox="0 0 16 17"><g><g><path fill="#d0d0d0" d="M13.837 7.207a1.219 1.219 0 0 0 0 .173c.007.238.024.733-.518.815a1.018 1.018 0 0 1-.155.013c-.582 0-.615-.542-.63-.803a1.983 1.983 0 0 0-.018-.188c-.361-2.179-1.101-2.95-3.298-3.442a2.2 2.2 0 0 0-.187-.03c-.235-.033-.527-.073-.693-.298-.098-.135-.131-.306-.097-.51.035-.21.17-.563.67-.563.127 0 .252.021.373.041.056.01.109.018.157.024 2.445.294 4.418 2.418 4.399 4.736 0 .01-.001.022-.003.032zM7.973.948c.014-.25.127-.671.718-.671.067 0 .133.004.192.008.048.004.094.007.13.007a.29.29 0 0 0 .045-.003.28.28 0 0 1 .045-.002c3.714.125 6.933 3.498 6.887 7.218 0 .05.002.107.004.168.011.246.025.554-.172.76-.114.119-.272.179-.47.179h-.02c-.635-.012-.644-.604-.649-.888a2.135 2.135 0 0 0-.01-.217c-.46-3.637-2.119-5.347-5.726-5.902a2.58 2.58 0 0 0-.178-.017c-.27-.02-.83-.06-.796-.64zm7.432 13.373c-.451 1.276-1.92 2.395-3.145 2.395h-.02a.254.254 0 0 1-.065-.01l-.153-.036a3.668 3.668 0 0 1-.66-.196c-2.603-1.121-4.849-2.613-6.677-4.435-1.867-1.86-3.347-4.116-4.4-6.703-.365-.895-.38-1.755-.044-2.487.347-.758 1.044-1.331 2.014-1.657.385-.13.761-.129 1.118.002.845.311 2.848 3.045 2.898 3.953.043.8-.572 1.218-.902 1.443-.582.395-.69.881-.359 1.625.684 1.538 1.88 2.704 3.556 3.463.207.095.398.142.565.142.283 0 .513-.14.702-.426.427-.647.945-.976 1.539-.976.44 0 .907.178 1.426.543l.252.176c.406.282.825.574 1.218.892.075.06.154.12.23.179.58.443 1.303.996.907 2.113zm-4.422-8.987c.505.514.802 1.158.796 1.725.018.544-.18.844-.59.893a.618.618 0 0 1-.076.005c-.34 0-.604-.275-.643-.668-.085-.844-.506-1.298-1.327-1.43-.227-.036-.476-.102-.606-.32-.088-.147-.097-.328-.025-.536.153-.444.589-.454.799-.46.555-.013 1.166.277 1.672.791z"/></g></g></svg>