<svg xmlns="http://www.w3.org/2000/svg" width="68" height="53" viewBox="0 0 68 53"><g><g><path fill="#037aca" d="M68 21.416v25.827C68 50.417 65.453 53 62.323 53h-44.05c-3.13 0-5.676-2.583-5.676-5.757V37.34h-6.92C2.547 37.34 0 34.757 0 31.583V5.756C0 2.582 2.547 0 5.677 0h44.05c3.13 0 5.676 2.582 5.676 5.756v9.904h6.92c3.13 0 5.677 2.582 5.677 5.756zM3.244 8.052h48.915V5.756c0-1.36-1.09-2.467-2.432-2.467H5.677c-1.342 0-2.433 1.107-2.433 2.467zM13.14 18.96H3.244v12.624c0 1.36 1.091 2.467 2.433 2.467h6.92V21.416c0-.878.195-1.711.544-2.457zm4.806-3.29c.108-.005.217-.01.327-.01h33.885v-4.317H3.244v4.328zm46.809 31.574V21.416c0-1.36-1.092-2.467-2.433-2.467h-8.365c-.058.006-.117.01-.177.01H18.075c-1.249.103-2.234 1.164-2.234 2.457v25.827c0 1.36 1.091 2.468 2.433 2.468h44.049c1.342 0 2.433-1.107 2.433-2.468zM53.003 34.33c0 4.371-3.507 7.928-7.819 7.928a7.713 7.713 0 0 1-4.88-1.74 7.7 7.7 0 0 1-4.891 1.74c-4.312 0-7.82-3.556-7.82-7.928 0-4.373 3.508-7.93 7.82-7.93a7.7 7.7 0 0 1 4.891 1.742 7.714 7.714 0 0 1 4.88-1.74c4.312 0 7.819 3.556 7.819 7.928zm-15.638 0c0-1.314.319-2.553.879-3.644a4.504 4.504 0 0 0-2.831-.996c-2.524 0-4.576 2.081-4.576 4.64 0 2.558 2.052 4.64 4.576 4.639a4.504 4.504 0 0 0 2.83-.995 7.968 7.968 0 0 1-.878-3.644zm12.394 0c0-2.558-2.052-4.639-4.575-4.639-2.522 0-4.574 2.08-4.574 4.639 0 2.557 2.052 4.638 4.574 4.638 2.523 0 4.575-2.08 4.575-4.638z"/></g></g></svg>