<svg xmlns="http://www.w3.org/2000/svg" width="68" height="66" viewBox="0 0 68 66"><g><g><path fill="#037aca" d="M12.139 54.567H27.93c.944 0 1.708.764 1.708 1.708v.306l8.694.014.014-.32c0-.944.764-1.708 1.709-1.708h15.819a1.707 1.707 0 1 1 0 3.417H41.458a3.41 3.41 0 0 1-3.11 2.013h-8.681a3.423 3.423 0 0 1-3.125-2.013H12.139a1.707 1.707 0 1 1 0-3.417zM11.083 20.82c0 .945-.764 1.708-1.708 1.708a1.07 1.07 0 0 0-1.07 1.07v32.691c0 .945-.75 1.709-1.694 1.709H3.403v1.513a3.16 3.16 0 0 0 3.152 3.153h54.862a3.16 3.16 0 0 0 3.152-3.153v-1.513h-3.208c-.93 0-1.708-.764-1.708-1.709V23.723c-.084-.667-.611-1.167-1.209-1.167a1.707 1.707 0 1 1 0-3.416c2.39 0 4.375 1.847 4.612 4.305.013.056.013.111.013.167v30.97h3.223c.944 0 1.708.763 1.708 1.707v3.222c0 3.611-2.945 6.555-6.556 6.555H6.555C2.945 66.066 0 63.122 0 59.511V56.29c0-.944.764-1.708 1.708-1.708h3.209v-30.97a4.478 4.478 0 0 1 4.472-4.471c.93 0 1.694.764 1.694 1.68zm5-4.666h1.542c.361-1.25.847-2.444 1.486-3.583l-1.083-1.083a2.907 2.907 0 0 1-.875-2.097c0-.792.32-1.542.875-2.098l2.43-2.444a2.908 2.908 0 0 1 2.097-.875c.792 0 1.542.306 2.098.861l1.083 1.084a16.815 16.815 0 0 1 3.583-1.486V2.905a2.976 2.976 0 0 1 2.973-2.972h3.444a2.976 2.976 0 0 1 2.972 2.972v1.528c1.25.36 2.445.847 3.584 1.486l1.083-1.084a2.908 2.908 0 0 1 2.097-.875c.792 0 1.542.32 2.097.875l2.445 2.445a2.975 2.975 0 0 1 0 4.194l-1.083 1.083a16.828 16.828 0 0 1 1.486 3.583h1.527a2.975 2.975 0 0 1 2.973 2.972v3.416a2.975 2.975 0 0 1-2.973 2.972h-1.527a16.828 16.828 0 0 1-1.486 3.584l1.083 1.083a2.975 2.975 0 0 1 0 4.194l-2.445 2.444a2.908 2.908 0 0 1-2.097.875 2.952 2.952 0 0 1-2.097-.86l-1.083-1.084a16.817 16.817 0 0 1-3.584 1.486v1.527a2.975 2.975 0 0 1-2.972 2.972h-3.444a2.975 2.975 0 0 1-2.973-2.972v-1.527a16.814 16.814 0 0 1-3.583-1.486l-1.083 1.083a2.909 2.909 0 0 1-2.098.875 2.952 2.952 0 0 1-2.097-.861l-2.444-2.444a2.975 2.975 0 0 1 0-4.194l1.083-1.084a16.826 16.826 0 0 1-1.486-3.583h-1.528a2.976 2.976 0 0 1-2.972-2.972v-3.444a2.975 2.975 0 0 1 2.972-2.972zm2.861 3.389h-2.43v2.583h2.43c.806 0 1.514.583 1.667 1.375a13.546 13.546 0 0 0 2.042 4.916c.458.68.36 1.583-.209 2.153l-1.722 1.722 1.82 1.819 1.722-1.722a1.704 1.704 0 0 1 2.153-.209c1.5 1 3.152 1.695 4.916 2.042a1.684 1.684 0 0 1 1.375 1.667v2.43h2.584v-2.43c0-.806.583-1.514 1.375-1.667a13.556 13.556 0 0 0 4.916-2.042 1.703 1.703 0 0 1 2.153.209l1.722 1.722 1.82-1.806-1.723-1.722a1.704 1.704 0 0 1-.208-2.152c1-1.5 1.695-3.153 2.042-4.917a1.695 1.695 0 0 1 1.667-1.374h2.43v-2.584h-2.43a1.709 1.709 0 0 1-1.667-1.374 13.548 13.548 0 0 0-2.042-4.917 1.702 1.702 0 0 1 .208-2.152l1.723-1.722-1.82-1.834-1.722 1.722a1.704 1.704 0 0 1-2.153.209 13.448 13.448 0 0 0-4.916-2.042 1.695 1.695 0 0 1-1.375-1.666V3.35h-2.584v2.444c0 .805-.583 1.513-1.375 1.666a13.548 13.548 0 0 0-4.916 2.042 1.703 1.703 0 0 1-2.153-.209l-1.722-1.722-1.82 1.82 1.722 1.722c.57.583.667 1.472.209 2.152-1 1.5-1.695 3.153-2.042 4.917a1.686 1.686 0 0 1-1.667 1.36zm6 1.291c0-5 4.056-9.055 9.056-9.055 5 0 9.055 4.055 9.055 9.055S38.986 29.89 34 29.89s-9.056-4.055-9.056-9.055zm3.403 0A5.657 5.657 0 0 0 34 26.486a5.657 5.657 0 0 0 5.653-5.652c0-3.11-2.542-5.652-5.653-5.652-3.111 0-5.653 2.541-5.653 5.652z"/></g></g></svg>