<svg xmlns="http://www.w3.org/2000/svg" width="16" height="16" viewBox="0 0 16 16"><g><g><path fill="#d0d0d0" d="M16 7.996c0 4.41-3.587 8-7.998 8A7.929 7.929 0 0 1 3.6 14.674l-3.075.983.997-2.972A7.941 7.941 0 0 1 0 7.996c0-4.412 3.586-8 7.997-8h.005c4.41 0 7.998 3.59 7.998 8zm-3.207 2.187c-.056-.099-.211-.155-.447-.273-.234-.117-1.377-.682-1.593-.757-.213-.08-.414-.052-.574.174-.225.315-.446.635-.625.828-.141.15-.371.17-.564.09-.26-.109-.983-.363-1.876-1.158-.692-.616-1.162-1.383-1.298-1.613-.136-.235-.015-.37.094-.498.118-.146.23-.25.348-.386.118-.136.184-.207.259-.367.08-.155.023-.315-.034-.433-.056-.118-.526-1.266-.72-1.73-.154-.372-.272-.386-.507-.396-.08-.004-.17-.009-.268-.009-.306 0-.625.09-.818.287-.235.24-.818.8-.818 1.947 0 1.148.837 2.258.95 2.413.118.155 1.632 2.544 3.983 3.518 1.838.762 2.384.691 2.801.602.612-.132 1.378-.584 1.57-1.129.194-.546.194-1.01.138-1.11z"/></g></g></svg>