<svg xmlns="http://www.w3.org/2000/svg" width="55" height="55" viewBox="0 0 55 55"><g><g><path fill="#037aca" d="M55 9.738v40.678A4.582 4.582 0 0 1 50.418 55H4.584A4.583 4.583 0 0 1 0 50.416V9.738a4.582 4.582 0 0 1 4.584-4.582h7.447V1.719a1.719 1.719 0 1 1 3.438 0v3.437H25.78V1.719a1.719 1.719 0 1 1 3.438 0v3.437H39.53V1.719a1.718 1.718 0 1 1 3.438 0v3.437h7.449A4.581 4.581 0 0 1 55 9.738zm-3.438 0c0-.63-.513-1.145-1.144-1.145h-7.45v3.438a1.718 1.718 0 1 1-3.437 0V8.593H29.22v3.438a1.719 1.719 0 1 1-3.438 0V8.593H15.47v3.438a1.719 1.719 0 1 1-3.438 0V8.593H4.584c-.633 0-1.147.514-1.147 1.145v40.678c0 .633.514 1.146 1.147 1.146h45.834c.63 0 1.144-.513 1.144-1.146zm-39.53 10.887h6.874v5.156h-6.875zm0 8.593h6.874v5.157h-6.875zm0 8.594h6.874v5.156h-6.875zm12.03 0h6.875v5.156h-6.875zm0-8.594h6.875v5.157h-6.875zm0-8.593h6.875v5.156h-6.875zm12.032 17.187h6.875v5.156h-6.875zm0-8.594h6.875v5.157h-6.875zm0-8.593h6.875v5.156h-6.875z"/></g></g></svg>